# xmcd
#
# Track frame offsets:
#	150
#	22479
#	41102
#	58484
#	76691
#	93317
#	112547
#	131908
#	147776
#	166998
#	188865
#
# Disc length: 2752 seconds
#
# Revision: 1
# Processed by: cddbd v1.5PL3 Copyright (c) Steve Scherf et al.
# Submitted via: CDex 1.50Beta5
#
DISCID=960abe0b
DTITLE=Do As Infinity - TRUE SONG
DYEAR=2002
DGENRE=New Age
TTITLE0=空想旅団
TTITLE1=under the sun
TTITLE2=Good for you
TTITLE3=I can’t be myself
TTITLE4=Perfect Lady
TTITLE5=真実の詩
TTITLE6=Grateful Journey
TTITLE7=One or Eight
TTITLE8=sense of life
TTITLE9=轍-WADACHI-
TTITLE10=あいのうた
EXTD=
EXTT0=
EXTT1=
EXTT2=
EXTT3=
EXTT4=
EXTT5=
EXTT6=
EXTT7=
EXTT8=
EXTT9=
EXTT10=
PLAYORDER=
